<svg xmlns="http://www.w3.org/2000/svg" version="1.1" width="500" height="70" viewBox="0 0 141.111 19.756" id="svg2" xml:space="preserve" fill-rule="evenodd"><defs id="defs4"><style type="text/css" id="style6"/></defs><g id="g3008" fill="#7f7f7f"><path d="M140.533 2.784c0-.963-.781-1.744-1.744-1.744-.956 0-1.744.787-1.744 1.744s.788 1.744 1.744 1.744c.957 0 1.744-.787 1.744-1.744zm-3.783 0c0-1.12.92-2.04 2.04-2.04 1.124 0 2.039.914 2.039 2.04a2.05 2.05 0 0 1-2.04 2.04 2.05 2.05 0 0 1-2.04-2.04z" id="_157374752" fill-rule="nonzero"/><path d="M138.73 1.285c.053.5.455.216.629.077.063-.05.14-.143.183-.17a.064.064 0 0 1 .085.03.314.314 0 0 1-.008.206 1.403 1.403 0 0 1-.137.271 4.3 4.3 0 0 1-.292.419c-.177.22-.4.396-.586.611-.284.331-.444.843-.357 1.274.023.11.075.25.18.308.627.348 1.086-1.142.874-1.582-.03-.056-.088-.159-.166-.144-.393.073-.574 1.348-.33 1.44-.011.152-.25.244-.32-.035a1.156 1.156 0 0 1-.025-.3c.012-.425.352-1.068.742-1.264.177-.09.426-.09.525.114.35.722-.594 2.055-1.41 1.934-.394-.06-.537-.438-.506-.797.024-.295.148-.576.318-.816.344-.484.886-.625 1.149-1.004 0 0 .01-.015.012-.023.004-.012-.01-.026-.028-.012a.76.76 0 0 1-.285.117c-.213.024-.328-.266-.364-.427-.008-.036-.01-.063-.044-.018-.104.135-.183.888-.289.93l-.412.164s-.018.008-.024-.016c-.047-.176.378-.784.497-.989.016-.026.113-.215.13-.23a.718.718 0 0 1 .259-.068z" id="_157374224"/></g><path d="M15.308 15.592H9.633L6.156 9.828l-1.13 1.175v4.589H.283V1.09h4.745v4.68l4.068-4.68h5.565L9.442 6.5l5.866 9.092zm6.353-5.38c0-.663-.155-1.264-.467-1.797-.311-.532-.792-.8-1.449-.8-.585 0-1.029.268-1.327.804a3.646 3.646 0 0 0-.447 1.793c0 .704.16 1.37.478 1.993.315.625.802.937 1.455.937.63 0 1.08-.302 1.351-.91a4.91 4.91 0 0 0 .406-2.02zm3.291 3.267c-1.12 1.663-3.043 2.44-5.03 2.44-2.048 0-4.022-.77-5.167-2.5-1.05-1.585-1.185-4.17-.3-5.863.68-1.302 1.928-2.243 3.358-2.625a7.426 7.426 0 0 1 4.792.28c1.414.582 2.466 1.777 2.924 3.198.5 1.552.322 3.737-.577 5.07zm36.77-4.33c-.149-.691-.393-1.17-.73-1.437-.34-.27-.769-.404-1.293-.404-.508 0-.911.13-1.208.392-.297.26-.521.742-.677 1.448h3.907zm4.058 2.047h-7.925c0 .327.057.613.169.863.34.759.958 1.271 1.841 1.271.649 0 1.397-.26 1.536-.965h4.06c-.155 1-.793 1.882-1.614 2.461-.83.583-1.847.908-2.852 1.023-1.288.158-2.78.115-3.972-.383a5.46 5.46 0 0 1-2.99-3.02 5.903 5.903 0 0 1-.023-4.184c.521-1.403 1.594-2.488 2.986-3.064 1.693-.696 4.062-.65 5.699.167 1.452.721 2.442 1.951 2.854 3.503.203.781.28 1.53.231 2.328zM77.148 13.5c-.78 1.487-2.22 2.415-3.955 2.415-1.247 0-2.067-.405-2.91-1.27v4.547h-4.227V5.061h3.743v1.576c.812-1.619 2.822-2.206 4.444-1.798 1.766.44 2.956 1.926 3.38 3.595.396 1.552.258 3.679-.475 5.065zm-3.443-3.435c0-.447-.149-.935-.448-1.46-.3-.525-.735-.787-1.3-.787-.563 0-.997.245-1.3.74-.303.49-.455.992-.455 1.507 0 .63.118 1.22.354 1.766.239.545.704.818 1.4.818.681 0 1.14-.283 1.385-.849a4.656 4.656 0 0 0 .364-1.735zm13.23 5.406c-1.642.576-3.875.664-5.511-.017-1.03-.428-1.943-1.151-2.52-2.113a5.892 5.892 0 0 1-.856-3.07c0-.721.152-1.43.407-2.103.59-1.513 1.613-2.381 3.088-2.983 1.688-.688 4.196-.663 5.8.21 1.527.83 2.327 1.976 2.537 3.663h-4.327c-.076-.519-.222-.84-.436-1.114-.606-.775-1.977-.396-2.415.37-.559.976-.651 2.419-.298 3.49.233.706 1 1.304 1.744 1.304 1.056 0 1.275-.711 1.55-1.595h4.182c-.044 1.767-1.1 3.312-2.945 3.958zm10.657-4.02a1.8 1.8 0 0 0-.053-.479c-.29.161-.743.301-1.359.42-.469.086-.967.19-1.387.42-.594.294-.562 1.137-.042 1.477.601.362 1.61.332 2.115-.175.482-.458.726-1.011.726-1.662zm4.704 4.142h-4.328l-.164-1.116c-.316.408-1.021.744-1.733 1.018-.347.134-.703.24-1.068.307a6.706 6.706 0 0 1-1.158.097c-.73 0-1.397-.128-2.002-.384a2.826 2.826 0 0 1-1.378-1.196 4.151 4.151 0 0 1-.424-1.807c0-.775.36-1.414.857-1.987.283-.327.56-.51 1.06-.702.236-.091.47-.17.7-.236.227-.066.443-.128.648-.159l1.772-.266c.752-.113 1.48-.21 1.802-.317.197-.065.43-.279.546-.414.115-.135.098-.276.098-.421 0-.199-.095-.364-.29-.499-.193-.135-.47-.202-.828-.202-.43 0-.966.064-1.226.192s-.427.384-.506.765h-4.009c.135-.69.11-1.094.306-1.516.196-.42.503-.782.924-1.082.421-.3 1-.533 1.74-.687a10.41 10.41 0 0 1 1.266-.165c.486-.04 1.026-.061 1.624-.061 1.457 0 2.548.173 3.275.519.726.345 1.2.623 1.42 1.142.22.516.369 1.186.438 2.008v5.568c0 .573.213.997.638 1.274v.327zm11.76 0h-4.175v-3.936h-3.092v3.936h-4.134l-.004-10.367.004-.158h4.134v3.526h3.045V5.067h4.222l-.004 10.336.004.189zm11.6-7.423h-3.595v7.423h-4.188V8.169h-3.625V5.067h11.408v3.102zm13.56 4.055c0 .924-.44 1.736-1.148 2.316-.93.77-2.218 1.052-3.4 1.052h-6.462V8.169h-2.414V5.067h6.443V8.76h2.204c1.227 0 2.587.24 3.56 1.046.731.605 1.217 1.453 1.217 2.417zm-4.162.01c0-.665-.368-.944-1-1.02-.13 0-.383-.01-.76-.026-.376-.017-.88-.024-1.059-.024v2.033l1.047.02c.285.006.52-.006.702-.02.643-.048 1.07-.222 1.07-.963zM33.906 15.592h-2.03L29.66 8.56l.342 2.755v4.276H26.3V5.006h4.748l1.843 5.847 1.844-5.847h4.748v10.586h-3.702v-4.276l.342-2.755-2.217 7.03zm13.865 0h-2.029L43.525 8.56l.342 2.755v4.276h-3.702V5.006h4.748l1.844 5.847L48.6 5.006h4.748v10.586h-3.702v-4.276l.342-2.755-2.217 7.03z" id="_158452176" fill="#000" fill-rule="nonzero"/></svg>