<svg height="24" viewBox="0 0 6.35 6.35" width="24" xmlns="http://www.w3.org/2000/svg"><path d="M1.058-56.545c-.586 0-1.058.472-1.058 1.058v4.233c0 .587.472 1.059 1.058 1.059h4.234c.586 0 1.058-.472 1.058-1.059v-4.233c0-.586-.472-1.058-1.058-1.058zm.795 1.058h2.644c.435 0 .795.358.795.793v2.647c0 .435-.36.792-.795.792H1.853a.798.798 0 0 1-.795-.792v-2.647c0-.435.36-.793.795-.793zm0 .53a.258.258 0 0 0-.266.263v2.647c0 .15.114.263.266.263h2.644a.259.259 0 0 0 .266-.263v-2.647a.259.259 0 0 0-.266-.263zm2.38.264a.265.265 0 0 1 .265.264.265.265 0 0 1-.265.265.265.265 0 0 1-.264-.265.265.265 0 0 1 .264-.264zm-1.058.265c.581 0 1.058.477 1.058 1.058 0 .582-.477 1.06-1.058 1.06a1.063 1.063 0 0 1-1.059-1.06c0-.581.478-1.058 1.059-1.058zm0 .53a.526.526 0 0 0-.53.528c0 .296.235.53.53.53.295 0 .53-.234.53-.53a.525.525 0 0 0-.53-.529zM1.058 0C.472 0 0 .472 0 1.058v4.234C0 5.878.472 6.35 1.058 6.35h4.234c.586 0 1.058-.472 1.058-1.058V1.058C6.35.472 5.878 0 5.292 0zm2.494 1.19h.615v.663h-.44c-.1 0-.23.032-.23.248v.476h.67l-.099.717h-.572V5.16H2.78V3.294h-.596v-.717h.596v-.615c0-.422.35-.771.773-.771z" fill="#fff" stroke-width=".265"/></svg>