<svg data-name="Layer 1" viewBox="0 0 100 100" xmlns="http://www.w3.org/2000/svg"><path d="M71.64 12.23V5H27.43v7.2H10.79v20.43a20.1 20.1 0 0 0 22.85 19.9c2.86 4.44 6.54 7.69 10.68 9.19v16h-6.44v6h-5.22L27 95h45l-5.59-11.25h-5.22v-6h-6.44v-16c4.14-1.5 7.82-4.75 10.68-9.19a20.1 20.1 0 0 0 22.85-19.9V12.23zm0 8.44h8.21v11.89a11.84 11.84 0 0 1-10.5 11.64 47 47 0 0 0 2.29-14.7zM29.72 44.2a11.84 11.84 0 0 1-10.5-11.64V20.67h8.21v8.83a47 47 0 0 0 2.29 14.7zM31 49.9a17.47 17.47 0 0 1-17.4-17.3V15h13.83v2.81h-11v14.77a14.61 14.61 0 0 0 14.37 14.5q.6 1.44 1.3 2.78c-.36.02-.71.04-1.1.04zm33.67 36.66l2.81 5.63H31.59l2.81-5.62h30.27zm-6.29-2.81H40.69v-3.22h17.69zm-6.44-6h-4.81V62.46a14.64 14.64 0 0 0 4.81 0zm-2.4-17.91c-4.93 0-9.65-3-13.29-8.46-3.87-5.81-6-13.58-6-21.89V7.84h38.58V29.5c0 8.31-2.13 16.08-6 21.89-3.64 5.45-8.36 8.45-13.29 8.45zm35.93-27.48v.25A17.47 17.47 0 0 1 68 49.9h-1.07q.69-1.34 1.3-2.78a14.61 14.61 0 0 0 14.38-14.5V17.86h-11V15h13.86z"/></svg>