<svg xmlns="http://www.w3.org/2000/svg" width="137" height="137"><path fill="#4BCAFF" d="M137 137V0H0v137h137M118.8 22.6c1.5 1.1 2.2 2.5 2.2 5 0 5-2.6 7-11.1 8.3-4.1.7-8.6 1.4-10.1 1.7-2.9.6-2.8.4-4.8 13-1.6 9.9-3.3 11.3-15.2 13.1-5.1.7-9.5 1.8-9.9 2.4-.3.6-1.2 5.1-1.9 10-1.6 11.7-3.1 13.1-16.3 14.9l-9.4 1.3-1.3 9.4c-1.8 13.5-6.3 18.3-12.9 13.7-2.2-1.6-2.3-2.2-1.8-8.8.3-3.9 1.1-10.7 1.8-15 1.6-10.8 2.9-12 14.6-13.6 5-.7 9.5-1.5 10-1.9.5-.3 1.7-5.1 2.5-10.6 2-11.9 2.8-12.8 13-14.5 14-2.2 12.4-.8 14.1-12.2 1.1-7.1 2.2-10.7 3.5-12.1 1.4-1.3 5.2-2.4 13.8-3.7 15.2-2.3 16.5-2.3 19.2-.4z"/></svg>