<svg xmlns="http://www.w3.org/2000/svg" width="120.96" height="50.61"><defs id="defs4"><style id="style2">.cls-1{fill:#fff}</style></defs><path class="cls-1" d="M101.09 9.06h-5.6v12.47h5.6c3.91 0 6-2.59 6-6.2a6.13 6.13 0 0 0-6-6.26m.78 20.83h-6.38v13h-9V.75h15.41a14.52 14.52 0 0 1 14.45 14.57 14.4 14.4 0 0 1-14.45 14.57" id="path66" fill="#fff"/><path d="M16.62 21.86a12.05 12.05 0 0 1 .83-4.39 12.12 12.12 0 1 0 15.7 15.68 12.11 12.11 0 0 1-16.53-11.29" id="path68" fill="#e93293"/><path d="M50.6 21.86a21.85 21.85 0 0 0-40.38-11.6 21.85 21.85 0 0 1 30.15 30.1 21.86 21.86 0 0 0 10.23-18.5" id="path70" fill="#e32284"/><path d="M10.23 10.26a21.85 21.85 0 1 0 30.15 30.1 21.85 21.85 0 0 1-30.15-30.1" id="path72" fill="#33b4e7"/><path d="M28.74 9.74a12.14 12.14 0 0 0-11.29 7.73 12.11 12.11 0 0 1 15.7 15.68 12.12 12.12 0 0 0-4.41-23.4" id="path74" fill="#79c8ef"/><path class="cls-1" d="M21.86 40.87a12.12 12.12 0 0 1-4.41-23.4 12.12 12.12 0 1 1 15.7 15.68 12.14 12.14 0 0 1-11.29 7.73m0-34a21.72 21.72 0 0 0-11.64 3.37 21.84 21.84 0 0 0 30.15 30.1A21.84 21.84 0 0 0 21.86 6.89" id="path76" fill="#fff"/><path class="cls-1" id="polygon78" d="M71.11 42.9h-9.03V9.54H52.5V.75h28.18v8.79h-9.57z" fill="#fff"/></svg>