<svg height="24" viewBox="0 0 6.35 6.35" width="24" xmlns="http://www.w3.org/2000/svg"><path d="M1.058-56.545c-.586 0-1.058.472-1.058 1.058v4.233c0 .587.472 1.059 1.058 1.059h4.234c.586 0 1.058-.472 1.058-1.059v-4.233c0-.586-.472-1.058-1.058-1.058zm.795 1.058h2.644c.435 0 .795.358.795.793v2.647c0 .435-.36.792-.795.792H1.853a.798.798 0 0 1-.795-.792v-2.647c0-.435.36-.793.795-.793zm0 .53a.258.258 0 0 0-.266.263v2.647c0 .15.114.263.266.263h2.644a.259.259 0 0 0 .266-.263v-2.647a.259.259 0 0 0-.266-.263zm2.38.264a.265.265 0 0 1 .265.264.265.265 0 0 1-.265.265.265.265 0 0 1-.264-.265.265.265 0 0 1 .264-.264zm-1.058.265c.581 0 1.058.477 1.058 1.058 0 .582-.477 1.06-1.058 1.06a1.063 1.063 0 0 1-1.059-1.06c0-.581.478-1.058 1.059-1.058zm0 .53a.526.526 0 0 0-.53.528c0 .296.235.53.53.53.295 0 .53-.234.53-.53a.525.525 0 0 0-.53-.529zM1.058 0C.472 0 0 .472 0 1.058v4.234C0 5.878.472 6.35 1.058 6.35h4.234c.586 0 1.058-.472 1.058-1.058V1.058C6.35.472 5.878 0 5.292 0zm3.945 1.513c.138.01.179.143.146.297L4.53 4.675c-.04.186-.18.21-.349.086l-.874-.637-.48.463c-.075.073-.215.094-.257-.033l-.36-1.105-.851-.268c-.329-.104-.094-.251.018-.294L4.83 1.546a.398.398 0 0 1 .172-.033zm-.613.596a.195.195 0 0 0-.066.026L2.375 3.37c-.012.007-.025.006-.012.044l.315.967.064-.657c.001-.013.002-.021.016-.034l1.645-1.477c.091-.081.05-.115-.013-.104z" fill="#fff" stroke-width=".265"/></svg>