<?xml version="1.0" encoding="utf-8"?>
<!-- Generator: Adobe Illustrator 16.0.0, SVG Export Plug-In . SVG Version: 6.00 Build 0)  -->
<!DOCTYPE svg PUBLIC "-//W3C//DTD SVG 1.1//EN" "http://www.w3.org/Graphics/SVG/1.1/DTD/svg11.dtd">
<svg version="1.1" id="Слой_1" xmlns="http://www.w3.org/2000/svg" xmlns:xlink="http://www.w3.org/1999/xlink" x="0px" y="0px"
	 width="137px" height="137px" viewBox="0 0 137 137" enable-background="new 0 0 137 137" xml:space="preserve">
<g transform="translate(0.000000,156.000000) scale(0.100000,-0.100000)">
	<path fill="#4BCAFF" d="M1370,190v685v685H685H0V875V190h685H1370 M1187.998,1333.999c15-11.001,22.002-25,22.002-50
		c0-50-25.996-70-110.996-82.998c-41.006-7.002-86.006-13.999-101.006-17.002c-28.994-6.001-27.998-3.999-47.998-130
		C934.004,955,917.002,941.001,797.998,922.998c-50.996-6.997-95-17.998-98.999-23.999c-2.998-6.001-11.997-51.001-18.999-99.995
		C663.999,682.002,648.999,667.998,517.002,650l-94.004-12.998L410,542.998c-17.998-135-62.998-182.998-128.999-137.002
		c-22.002,16.006-23.003,22.002-18.003,88.008c3.003,38.994,11.001,106.992,18.003,150C297.002,752.002,310,764.004,427.002,780
		c50,7.002,95,15,100,19.004c5,2.998,16.997,50.996,25,105.996c20,118.999,27.998,127.998,130,145
		c140,22.002,123.994,7.998,140.996,122.002c11.006,70.996,22.002,106.997,35,120.996c14.004,13.003,52.002,24.004,137.998,37.002
		C1147.998,1352.998,1160.996,1352.998,1187.998,1333.999z"/>
</g>
</svg>
