<?xml version="1.0" encoding="UTF-8"?>
<svg width="79px" height="21px" viewBox="0 0 79 21" version="1.1" xmlns="http://www.w3.org/2000/svg" xmlns:xlink="http://www.w3.org/1999/xlink">
    <!-- Generator: Sketch 46.2 (44496) - http://www.bohemiancoding.com/sketch -->
    <title>Group 2</title>
    <desc>Created with Sketch.</desc>
    <defs></defs>
    <g id="Page-1" stroke="none" stroke-width="1" fill="none" fill-rule="evenodd">
        <g id="Mob_rbc" transform="translate(-99.000000, -132.000000)">
            <g id="Group-2" transform="translate(99.000000, 132.000000)">
                <g id="Group">
                    <polygon id="Fill-1" fill="#92CFAE" points="0 0 0 19.6 19.6 0"></polygon>
                    <polygon id="Fill-2" fill="#2A8288" points="1.4 21 21 21 21 1.4"></polygon>
                </g>
                <path d="M32.0095832,10.0447845 C34.2885001,10.0447845 35.5,8.92877236 35.5,6.84359176 L35.5,6.72577923 C35.5,4.49375492 34.2306664,3.6126927 32.0095832,3.6126927 L29.6440829,3.6126927 L29.6440829,10.0447845 L32.0095832,10.0447845 Z M25,0 L32.1249164,0 C37.1440829,0 40,2.26139305 40,6.69674806 L40,6.81388545 C40,11.2489029 36.9712503,13.3637898 32.2689993,13.3637898 L29.6440829,13.3637898 L29.6440829,21 L25,21 L25,0 Z" id="Fill-3" fill="#FFFFFF"></path>
                <path d="M49.2453152,17.3873073 C51.481228,17.3873073 52.613452,16.3887701 52.613452,14.4794644 L52.613452,14.362327 C52.613452,12.48239 51.481228,11.4544841 49.1321584,11.4544841 L46.52824,11.4544841 L46.52824,17.3873073 L49.2453152,17.3873073 Z M49.4152144,21 L42,21 L42,0 L55.1888352,0 L55.1888352,3.70079892 L46.5567752,3.70079892 L46.52824,8.10611005 L49.5565784,8.10611005 C54.2265104,8.10611005 57,10.1916282 57,14.3913582 L57,14.5091707 C57,18.6207944 54.4246168,21 49.4152144,21 L49.4152144,21 Z" id="Fill-5" fill="#FFFFFF"></path>
                <polygon id="Fill-8" fill="#FFFFFF" points="60.375 0.0293277257 65.2513008 0.0293277257 65.2513008 9.06294144 72.7762713 0 77.9536128 0 69.4351733 9.94277321 78.375 21 72.6859242 21 65.2513008 11.5851259 65.2513008 21 60.375 21"></polygon>
            </g>
        </g>
    </g>
</svg>