<?xml version="1.0" encoding="utf-8"?>
<!-- Generator: Adobe Illustrator 16.0.4, SVG Export Plug-In . SVG Version: 6.00 Build 0)  -->
<!DOCTYPE svg PUBLIC "-//W3C//DTD SVG 1.1//EN" "http://www.w3.org/Graphics/SVG/1.1/DTD/svg11.dtd">
<svg version="1.1" id="Layer_2" xmlns="http://www.w3.org/2000/svg" xmlns:xlink="http://www.w3.org/1999/xlink" x="0px" y="0px"
	 width="345px" height="64px" viewBox="0 0 345 64" enable-background="new 0 0 345 64" xml:space="preserve">
<g>
	<path d="M17.345,49.697l-0.039-22.375l2.53-0.056c2.082,0,4.964,1.559,4.964,5.951v10.38c0,6.244-3.599,6.1-4.889,6.1H17.345z
		 M3.677,49.707l-3.702-0.028v2.406H22.02c9.533,0,16.464-4.844,16.464-14.557c0-6.728-6.787-11.043-12.505-10.937V25.88
		c6.626-0.868,9.977-5.731,9.977-12.36c0-6.671-6.063-11.001-14.135-11.001L-0.025,2.514v2.482l3.701-0.039L3.677,49.707z
		 M17.345,24.85V4.975h2.566c1.29,0,3.664-0.39,3.664,5.824v7.866c0,4.956-1.938,6.186-3.739,6.186H17.345z"/>
	<path d="M44.66,4.947h-3.706V2.631H72v17.29h-1.198C69.944,2.237,58.231,4.994,58.231,4.994l0.066,19.868l1.258,0.002
		c3.904,0,5.846-4.811,6.207-9.932h1.241v22.342h-1.241c-0.536-4.98-2.245-9.928-6.207-9.928l-1.324,0.027l0.066,22.222
		c9.896,0.019,12.832-7.224,13.836-16.055h0.993v18.544H40.954v-2.424h3.706V4.947z"/>
	<path d="M78.19,2.497v2.487h3.793c1.212,0,2.398,1.22,2.398,4.955c0,0,0,6.15,0,14.398c0,11.588-1.251,23.17-4.965,25.352h-3.725
		v13.651h1.242c0-6.936,2.641-11.17,8.688-11.17h13.655c6.283,0,9.931,3.245,9.931,11.17h1.241V49.689h-4.965V5.002l3.725-0.018
		V2.497H78.19z M91.829,5.002v44.688h-8.086v-1.243c1.813-4.325,3.121-16.992,3.121-24.826V9.967c0-3.705,1.206-4.965,2.482-4.965
		H91.829z"/>
	<path d="M111.675,27.413c0,12.23,5.266,25.983,16.759,25.983c11.502,0,16.771-13.598,16.771-25.825
		c0-12.235-5.269-26.333-16.771-26.333C116.94,1.238,111.675,15.182,111.675,27.413 M125.288,7.408c0-3.023,1.497-4.007,3.146-4.007
		c1.651,0,3.131,0.984,3.131,4.007v39.683c0,3.023-1.48,4.131-3.131,4.131c-1.649,0-3.146-1.107-3.146-4.131V7.408z"/>
	<path d="M155.149,12.442h-1.265l-0.024,32.195c0,3.503,2.044,5.048,4.926,5.074c0.12,0.129,0.038,2.453,0.038,2.453h-12.364v-2.425
		c1.79,0,4.956-0.319,4.956-5.047l0.011-39.757h-3.716V2.637h17.106l3.973,16.819l0,0l3.971-16.819l18.356-0.006v2.241h-3.782
		l0.065,44.804h3.717v2.409h-21.109v-2.409h3.746V12.415h-0.993l-7.695,39.691l-1.134-0.021L155.149,12.442z"/>
	<path d="M260.54,19.85h-1.129c-0.469-8.263-3.614-16.148-8.107-16.148c-4.114,0-5.643,5.02-5.643,12.29V36.9
		c0,7.834,0.719,12.797,5.089,12.797c5.769,0,8.915-9.605,9.829-16.138h1.266c-0.412,8.356-3.972,19.888-13.683,19.888
		c-10.156,0-17.345-9.789-17.345-26.052c0-14.126,7.047-26.157,17.27-26.157c2.01,0,6.651,0.852,8.623,2.72L259.799,0h0.741V19.85z"
		/>
	<path d="M276.759,4.943c-6.293,0-9.851,7.51-9.851,14.928h-1.315V2.596l35.962,0.041v17.235h-1.313
		c0-6.796-3.039-14.932-9.893-14.932v44.775h5.007v2.37h-23.5v-2.37h4.903V4.943z"/>
	<path d="M307.819,4.927h-3.741v-2.29h19.878v2.29h-2.53V32.28h0.993l5.262-24.772V4.907h-2.53V2.637h19.876v2.29h-3.818v44.78
		h3.818v2.378H325.15v-2.378h2.53l-0.078-28.544h-0.995l-5.258,26.073v2.393l2.538,0.078v2.378h-19.786v-2.369h3.718V4.927z"/>
	<path d="M193.6,27.413c0,12.23,5.264,25.983,16.758,25.983c11.503,0,16.771-13.598,16.771-25.825
		c0-12.235-5.268-26.333-16.771-26.333C198.863,1.238,193.6,15.182,193.6,27.413 M207.211,7.408c0-3.023,1.498-4.007,3.146-4.007
		c1.652,0,3.133,0.984,3.133,4.007v39.683c0,3.023-1.48,4.131-3.133,4.131c-1.648,0-3.146-1.107-3.146-4.131V7.408z"/>
</g>
</svg>
